<svg width="20" height="20" viewBox="0 0 24 24" fill="currentColor" xmlns="http://www.w3.org/2000/svg" aria-hidden="true">
  <path d="M16.365 1.43c0 1.14-.45 2.22-1.18 3.01-.75.81-1.97 1.43-3.07 1.34-.14-1.09.51-2.25 1.23-2.97.8-.79 2.12-1.39 3.02-1.38zM20.94 18.4c-.61 1.43-.94 2.07-1.76 3.34-1.14 1.75-2.75 3.94-4.75 3.96-1.77.02-2.23-1.15-4.64-1.14-2.4.01-2.92 1.16-4.69 1.14-2-.02-3.54-1.99-4.69-3.74C-1.17 18.8-1 14.07 1.47 11.35c1.33-1.53 3.08-2.43 4.86-2.43 2.27 0 3.69 1.2 4.66 1.2.92 0 2.81-1.46 4.93-1.24.84.03 3.2.34 4.72 2.58-3.99 2.17-3.35 7.82-.7 6.94z"/>
</svg>
