<svg width="20" height="20" viewBox="0 0 20 20" fill="none" xmlns="http://www.w3.org/2000/svg" aria-hidden="true">
  <path d="M19.6 10.23c0-.68-.06-1.18-.19-1.7H10v3.09h5.52c-.11.86-.73 2.15-2.1 3.02l-.02.14 3.05 2.37.21.02c1.92-1.77 3.04-4.37 3.04-6.96Z" fill="#4285F4"/>
  <path d="M10 20c2.76 0 5.08-.91 6.77-2.49l-3.23-2.5c-.87.58-2.03.98-3.54.98-2.71 0-5.01-1.77-5.83-4.23l-.12.01-3.3 2.56-.04.12C1.39 17.64 5.35 20 10 20Z" fill="#34A853"/>
  <path d="M4.17 11.76A6.02 6.02 0 0 1 3.84 10c0-.61.11-1.2.31-1.76l-.01-.12-3.34-2.6-.11.05A9.98 9.98 0 0 0 0 10c0 1.62.39 3.15 1.07 4.51l3.1-2.75Z" fill="#FBBC05"/>
  <path d="M10 3.96c1.92 0 3.22.82 3.96 1.51l2.89-2.82C15.06 1.02 12.76 0 10 0 5.35 0 1.39 2.36 1.07 5.49l3.08 2.75C4.97 5.73 7.29 3.96 10 3.96Z" fill="#EA4335"/>
</svg>
